<?xml version="1.0" encoding="UTF-8"?>
<svg width="36px" height="36px" viewBox="0 0 36 36" version="1.1" xmlns="http://www.w3.org/2000/svg" xmlns:xlink="http://www.w3.org/1999/xlink">
    <title>Myfiles/Mobile/Light_theme/icon/file_type/etc</title>
    <g id="Myfiles/Mobile/Light_theme/icon/file_type/etc" stroke="none" stroke-width="1" fill="none" fill-rule="evenodd">
        <g id="File_type/folder-Copy">
            <path d="M31.7831824,4.21678768 C29.5918473,2.15689841 26.6003857,0.988259233 23.2992381,0.551146122 C20.1465495,0.133310051 18.0000274,0.236204374 18.0000274,0.236204374 C18.0000274,0.236204374 15.8530047,0.133310051 12.7003161,0.551146122 C9.39916852,0.988259233 6.40795727,2.15689841 4.21712285,4.21678768 C2.15672207,6.40786096 0.988327118,9.39930687 0.550961362,12.7004372 C0.133123099,15.8528588 0.236268314,17.9998703 0.236268314,17.9998703 C0.236268314,17.9998703 0.133123099,20.1466314 0.550961362,23.2993035 C0.988327118,26.6001834 2.15672207,29.5918797 4.2168725,31.782953 C6.40795727,33.8430926 9.39916852,35.0114814 12.7003161,35.4490952 C15.8530047,35.8666809 18.0000274,35.7637866 18.0000274,35.7637866 C18.0000274,35.7637866 20.1465495,35.8666809 23.2992381,35.4490952 C26.6003857,35.0114814 29.5918473,33.8430926 31.7826817,31.782953 C33.8433328,29.5918797 35.0117278,26.6001834 35.4490935,23.2993035 C35.8666814,20.1466314 35.7637866,17.9998703 35.7637866,17.9998703 C35.7637866,17.9998703 35.8666814,15.8528588 35.4490935,12.7004372 C35.0117278,9.39930687 33.8433328,6.40786096 31.7831824,4.21678768 Z" id="BG" fill="#F4F4F4"></path>
            <path d="M20.221425,7.87165 L12.512425,7.87165 C10.475175,7.87165 8.823425,9.52365 8.823425,11.56065 L8.823425,23.36515 C8.823425,25.4019 10.475175,27.05365 12.512425,27.05365 L24.316925,27.05365 C26.354425,27.05365 28.005675,25.4019 28.005675,23.36515 L28.005675,15.43065 L20.221425,7.87165 Z" id="Fill-6" fill="#D4CEC9"></path>
            <path d="M20.166225,7.818175 L20.166225,12.021675 C20.166225,14.059425 21.817975,15.710425 23.855225,15.710425 L28.293975,15.710425 L20.166225,7.818175 Z" id="Fill-8" fill="#705D51"></path>
        </g>
    </g>
</svg>